<svg width="24" height="24" viewBox="0 0 24 24" fill="none" xmlns="http://www.w3.org/2000/svg">
<path d="M14.1104 5.96387C14.6167 5.34961 14.9736 4.51123 14.9736 3.66455C14.9736 3.54834 14.9653 3.43213 14.9487 3.34082C14.1187 3.37402 13.1226 3.88867 12.5332 4.58594C12.0601 5.11719 11.6284 5.96387 11.6284 6.81055C11.6284 6.94336 11.6533 7.06787 11.6616 7.10938C11.7114 7.11768 11.7944 7.13428 11.8857 7.13428C12.6245 7.13428 13.5542 6.63623 14.1104 5.96387ZM14.6914 7.30859C13.4546 7.30859 12.4419 8.06396 11.7944 8.06396C11.1055 8.06396 10.209 7.3584 9.12988 7.3584C7.07959 7.3584 5.00439 9.05176 5.00439 12.2393C5.00439 14.2314 5.76807 16.3315 6.72266 17.6846C7.53613 18.8301 8.25 19.7681 9.2793 19.7681C10.292 19.7681 10.7402 19.0957 12.002 19.0957C13.2803 19.0957 13.5708 19.7515 14.6914 19.7515C15.8037 19.7515 16.5425 18.7305 17.248 17.7261C18.0283 16.5723 18.3604 15.4517 18.3687 15.3936C18.3022 15.377 16.1772 14.5054 16.1772 12.0732C16.1772 9.96484 17.8457 9.01855 17.9453 8.94385C16.8413 7.3584 15.1562 7.30859 14.6914 7.30859Z" fill="#272727"/>
</svg>
