<svg width="1024" height="1024" viewBox="0 0 1024 1024" fill="none" xmlns="http://www.w3.org/2000/svg">
<rect x="95" y="95" width="834" height="834" rx="417" fill="#E25822"/>
<g filter="url(#filter0_d_508_4242)">
<path d="M160.142 413.031C160.142 409.516 161.284 407.23 163.569 406.176C166.03 405.121 168.667 404.594 171.479 404.594C172.007 404.594 172.974 404.682 174.38 404.857C175.962 405.033 176.929 405.121 177.28 405.121C177.808 410.57 178.335 417.162 178.862 424.896C179.39 432.455 180.005 440.717 180.708 449.682C181.411 458.471 182.29 467.611 183.345 477.104C184.399 486.596 185.893 495.912 187.827 505.053C189.761 514.018 192.134 522.631 194.946 530.893C197.759 538.979 201.186 546.01 205.229 551.986C206.108 553.568 206.899 554.799 207.602 555.678C208.481 556.381 209.272 556.996 209.975 557.523C210.854 557.875 211.821 558.139 212.876 558.314C213.931 558.314 215.249 558.314 216.831 558.314C224.038 558.314 230.893 557.084 237.397 554.623C244.077 552.162 250.669 549.438 257.173 546.449C263.677 543.461 270.268 540.736 276.948 538.275C283.628 535.814 290.659 534.584 298.042 534.584C299.624 534.584 301.645 534.584 304.106 534.584C306.567 534.408 308.852 534.496 310.962 534.848C313.071 535.199 314.917 536.078 316.499 537.484C318.081 538.891 318.872 541 318.872 543.812C318.872 546.449 316.499 549.35 311.753 552.514C307.007 555.502 300.942 558.578 293.559 561.742C286.177 564.73 278.091 567.719 269.302 570.707C260.688 573.695 252.339 576.332 244.253 578.617C236.343 580.902 229.311 582.748 223.159 584.154C217.007 585.385 212.964 586 211.03 586C204.702 586 199.077 583.891 194.155 579.672C189.409 575.277 185.19 569.477 181.499 562.27C177.983 554.887 174.995 546.537 172.534 537.221C170.073 527.729 168.052 517.885 166.47 507.689C164.888 497.494 163.657 487.387 162.778 477.367C161.899 467.348 161.284 458.031 160.933 449.418C160.581 440.805 160.317 433.246 160.142 426.742C160.142 420.238 160.142 415.668 160.142 413.031ZM328.99 478.422C328.99 477.367 328.99 475.521 328.99 472.885C329.166 470.072 329.254 467.172 329.254 464.184C329.254 461.195 329.254 458.471 329.254 456.01C329.43 453.373 329.518 451.527 329.518 450.473C330.748 448.363 332.154 446.342 333.736 444.408C335.494 442.299 337.252 440.893 339.01 440.189C340.943 439.311 342.965 439.135 345.074 439.662C347.359 440.189 349.644 441.947 351.93 444.936V447.045V450.473C351.754 451.352 351.402 453.461 350.875 456.801C350.348 459.965 349.732 463.48 349.029 467.348C348.326 471.215 347.623 474.818 346.92 478.158C346.393 481.322 346.129 483.344 346.129 484.223C346.129 487.562 346.48 491.781 347.184 496.879C347.887 501.801 348.853 506.986 350.084 512.436C351.49 517.885 353.16 523.334 355.094 528.783C357.203 534.232 359.664 539.154 362.477 543.549C365.289 547.768 368.365 551.283 371.705 554.096C375.221 556.908 379.264 558.314 383.834 558.314C389.459 558.314 394.381 556.82 398.6 553.832C402.994 550.844 406.773 546.977 409.937 542.23C413.102 537.484 415.65 532.123 417.584 526.146C419.693 520.17 421.363 514.193 422.594 508.217C423.824 502.064 424.703 496.176 425.23 490.551C425.758 484.926 426.021 480.004 426.021 475.785C426.021 471.566 425.67 467.611 424.967 463.92C424.439 460.053 423.736 456.273 422.857 452.582C421.978 448.891 421.187 445.287 420.484 441.771C419.957 438.08 419.693 434.389 419.693 430.697C419.693 427.357 420.836 424.984 423.121 423.578C425.582 422.172 428.307 421.469 431.295 421.469C434.986 421.469 437.975 422.611 440.26 424.896C442.545 427.006 444.303 429.73 445.533 433.07C446.939 436.41 447.818 440.277 448.17 444.672C448.697 448.891 448.961 453.109 448.961 457.328C448.961 461.547 448.873 465.59 448.697 469.457C448.521 473.148 448.434 476.137 448.434 478.422C448.434 484.398 447.994 491.166 447.115 498.725C446.236 506.283 444.654 514.105 442.369 522.191C440.26 530.102 437.535 537.924 434.195 545.658C431.031 553.393 427.076 560.336 422.33 566.488C417.76 572.465 412.398 577.299 406.246 580.99C400.269 584.682 393.502 586.527 385.943 586.527C378.033 586.527 371.09 584.682 365.113 580.99C359.137 577.123 354.039 572.113 349.82 565.961C345.777 559.633 342.35 552.514 339.537 544.604C336.725 536.693 334.527 528.783 332.945 520.873C331.539 512.963 330.484 505.316 329.781 497.934C329.254 490.375 328.99 483.871 328.99 478.422ZM459.079 506.635C459.079 499.252 460.661 491.518 463.825 483.432C467.165 475.346 471.56 468.051 477.009 461.547C482.458 454.867 488.698 449.33 495.729 444.936C502.937 440.541 510.495 438.344 518.405 438.344C522.448 438.344 526.491 439.047 530.534 440.453C534.577 441.859 538.181 443.881 541.345 446.518C544.685 449.154 547.321 452.318 549.255 456.01C551.364 459.701 552.419 463.832 552.419 468.402C549.255 468.402 546.354 468.051 543.718 467.348C541.257 466.645 538.796 465.854 536.335 464.975C533.874 463.92 531.413 463.041 528.952 462.338C526.667 461.635 524.118 461.283 521.306 461.283C514.099 461.283 508.21 463.129 503.64 466.82C499.245 470.336 495.729 474.818 493.093 480.268C490.456 485.717 488.61 491.605 487.556 497.934C486.677 504.086 486.237 509.887 486.237 515.336C486.237 516.215 486.237 517.885 486.237 520.346C486.413 522.807 486.501 525.443 486.501 528.256C486.677 530.893 486.765 533.441 486.765 535.902C486.94 538.363 487.116 540.033 487.292 540.912C489.226 545.131 491.071 548.383 492.829 550.668C494.763 552.953 496.784 554.711 498.894 555.941C501.003 556.996 503.288 557.699 505.749 558.051C508.21 558.227 511.11 558.314 514.45 558.314C519.021 558.314 522.976 557.611 526.315 556.205C529.831 554.799 533.083 553.129 536.071 551.195C539.06 549.262 541.872 547.152 544.509 544.867C547.146 542.406 549.87 540.209 552.683 538.275C555.671 536.166 558.835 534.496 562.175 533.266C565.69 531.859 569.646 531.156 574.04 531.156C574.04 539.77 572.458 547.416 569.294 554.096C566.306 560.775 561.999 566.488 556.374 571.234C550.925 575.98 544.421 579.672 536.862 582.309C529.479 584.77 521.394 586 512.604 586C504.343 586 496.872 583.188 490.192 577.562C483.688 571.938 478.063 565.082 473.317 556.996C468.747 548.734 465.231 540.033 462.771 530.893C460.31 521.752 459.079 513.666 459.079 506.635ZM639.793 580.727C636.98 583.188 633.992 582.045 630.828 577.299C627.84 572.553 624.764 565.434 621.6 555.941C618.436 546.273 615.272 534.76 612.107 521.4C609.119 508.041 606.219 493.891 603.406 478.949C600.594 464.008 597.869 448.891 595.232 433.598C592.772 418.129 590.574 403.627 588.641 390.092C588.641 387.631 588.553 385.17 588.377 382.709C588.377 380.072 588.641 377.699 589.168 375.59C589.871 373.305 591.014 371.283 592.596 369.525C594.354 367.768 596.99 366.449 600.506 365.57C600.857 365.395 601.561 365.57 602.615 366.098C603.846 366.449 605.076 366.977 606.307 367.68C607.537 368.207 608.592 368.822 609.471 369.525C610.525 370.229 611.229 370.844 611.58 371.371C609.295 404.242 613.074 436.234 622.918 467.348C623.445 466.82 624.852 465.062 627.137 462.074C629.422 458.91 632.322 455.307 635.838 451.264C639.354 447.045 643.309 442.562 647.703 437.816C652.273 433.07 657.02 428.676 661.941 424.633C666.863 420.59 671.785 417.25 676.707 414.613C681.629 411.801 686.375 410.395 690.945 410.395C693.582 410.395 696.131 411.01 698.592 412.24C701.229 413.471 702.547 415.844 702.547 419.359C702.547 419.711 702.459 420.238 702.283 420.941C702.107 421.469 702.02 421.908 702.02 422.26C699.207 424.721 694.9 428.5 689.1 433.598C683.475 438.695 677.498 444.408 671.17 450.736C664.842 457.064 658.777 463.656 652.977 470.512C647.176 477.367 642.781 483.871 639.793 490.023C639.266 491.078 639.09 492.045 639.266 492.924C639.441 493.627 639.617 494.506 639.793 495.561C641.727 496.264 644.803 497.318 649.022 498.725C653.24 500.131 657.898 501.801 662.996 503.734C668.094 505.492 673.543 507.426 679.344 509.535C685.145 511.469 690.594 513.402 695.691 515.336C700.789 517.27 705.359 519.027 709.402 520.609C713.621 522.016 716.785 523.07 718.895 523.773C721.355 524.828 723.377 525.531 724.959 525.883C726.541 526.234 727.772 526.762 728.65 527.465C729.529 527.992 730.145 528.783 730.496 529.838C730.848 530.893 731.023 532.475 731.023 534.584C731.023 539.682 729.793 543.021 727.332 544.604C724.871 546.186 721.355 546.977 716.785 546.977C703.25 546.098 689.979 543.285 676.971 538.539C663.963 533.617 650.779 527.729 637.42 520.873C636.893 524.213 637.068 528.08 637.947 532.475C639.002 536.869 640.232 541.264 641.639 545.658C643.045 550.053 644.363 554.359 645.594 558.578C647 562.797 647.791 566.576 647.967 569.916C648.318 573.256 647.967 575.893 646.912 577.826C645.857 579.76 643.484 580.727 639.793 580.727ZM736.659 449.682C736.659 448.1 736.659 446.518 736.659 444.936C736.835 443.178 737.187 441.596 737.714 440.189C738.417 438.607 739.296 437.465 740.351 436.762C741.581 435.883 743.339 435.443 745.624 435.443C745.8 435.443 745.976 435.443 746.151 435.443C746.503 435.443 746.855 435.443 747.206 435.443C747.734 435.619 748.173 435.707 748.525 435.707C751.864 440.277 754.765 446.166 757.226 453.373C759.687 460.404 762.06 467.963 764.345 476.049C766.63 483.959 769.091 492.045 771.728 500.307C774.364 508.393 777.792 515.688 782.011 522.191C786.23 528.695 791.415 533.881 797.568 537.748C803.72 541.615 811.366 543.285 820.507 542.758C824.55 542.758 827.187 540.561 828.417 536.166C829.648 531.771 830.263 526.146 830.263 519.291C830.439 512.436 830.263 504.877 829.735 496.615C829.384 488.354 829.384 480.531 829.735 473.148C830.263 465.59 831.581 458.998 833.691 453.373C835.976 447.748 839.843 443.969 845.292 442.035C847.577 446.605 849.423 453.812 850.829 463.656C852.411 473.324 853.554 484.574 854.257 497.406C854.96 510.062 855.312 523.861 855.312 538.803C855.312 553.568 854.96 568.334 854.257 583.1C853.554 597.689 852.499 611.752 851.093 625.287C849.687 638.822 848.105 650.688 846.347 660.883C844.589 671.078 842.48 679.076 840.019 684.877C837.734 690.854 835.273 693.402 832.636 692.523C828.944 689.008 826.044 684.438 823.935 678.812C822.001 673.188 820.595 666.947 819.716 660.092C819.013 653.236 818.749 645.941 818.925 638.207C819.101 630.648 819.364 623.002 819.716 615.268C820.243 607.533 820.771 599.975 821.298 592.592C822.001 585.209 822.353 578.441 822.353 572.289C816.025 572.816 809.521 571.85 802.841 569.389C796.337 566.928 789.921 563.148 783.593 558.051C777.265 552.777 771.2 546.449 765.4 539.066C759.775 531.684 754.765 523.334 750.37 514.018C746.151 504.701 742.812 494.682 740.351 483.959C737.89 473.061 736.659 461.635 736.659 449.682Z" fill="#FFBE3D"/>
</g>
<defs>
<filter id="filter0_d_508_4242" x="156.141" y="365.307" width="703.172" height="336.535" filterUnits="userSpaceOnUse" color-interpolation-filters="sRGB">
<feFlood flood-opacity="0" result="BackgroundImageFix"/>
<feColorMatrix in="SourceAlpha" type="matrix" values="0 0 0 0 0 0 0 0 0 0 0 0 0 0 0 0 0 0 127 0" result="hardAlpha"/>
<feOffset dy="4"/>
<feGaussianBlur stdDeviation="2"/>
<feComposite in2="hardAlpha" operator="out"/>
<feColorMatrix type="matrix" values="0 0 0 0 0 0 0 0 0 0 0 0 0 0 0 0 0 0 0.25 0"/>
<feBlend mode="normal" in2="BackgroundImageFix" result="effect1_dropShadow_508_4242"/>
<feBlend mode="normal" in="SourceGraphic" in2="effect1_dropShadow_508_4242" result="shape"/>
</filter>
</defs>
</svg>
